<?xml version="1.0" encoding="UTF-8" standalone="no"?>
<!DOCTYPE svg PUBLIC "-//W3C//DTD SVG 1.1//EN"
 "http://www.w3.org/Graphics/SVG/1.1/DTD/svg11.dtd">
<!-- Generated by graphviz version 2.38.0 (20140413.2041)
 -->
<!-- Title: autograph Pages: 1 -->
<svg width="848pt" height="1628pt"
 viewBox="0.00 0.00 848.00 1628.00" xmlns="http://www.w3.org/2000/svg" xmlns:xlink="http://www.w3.org/1999/xlink">
<g id="graph0" class="graph" transform="scale(1 1) rotate(0) translate(4 1624)">
<title>autograph</title>
<polygon fill="white" stroke="none" points="-4,4 -4,-1624 844,-1624 844,4 -4,4"/>
<!-- Mary -->
<g id="node1" class="node"><title>Mary</title>
<ellipse fill="none" stroke="black" cx="659" cy="-1386" rx="29.795" ry="18"/>
<text text-anchor="middle" x="659" y="-1382.3" font-family="Times,serif" font-size="14.00">Mary</text>
</g>
<!-- had -->
<g id="node2" class="node"><title>had</title>
<ellipse fill="none" stroke="black" cx="502" cy="-1314" rx="27" ry="18"/>
<text text-anchor="middle" x="502" y="-1310.3" font-family="Times,serif" font-size="14.00">had</text>
</g>
<!-- Mary&#45;&gt;had -->
<g id="edge1" class="edge"><title>Mary&#45;&gt;had</title>
<path fill="none" stroke="black" d="M635.496,-1374.52C608.325,-1362.41 563.49,-1342.42 533.364,-1328.98"/>
<polygon fill="black" stroke="black" points="534.699,-1325.75 524.141,-1324.87 531.849,-1332.14 534.699,-1325.75"/>
</g>
<!-- went -->
<g id="node15" class="node"><title>went</title>
<ellipse fill="none" stroke="black" cx="745" cy="-1242" rx="28.6953" ry="18"/>
<text text-anchor="middle" x="745" y="-1238.3" font-family="Times,serif" font-size="14.00">went</text>
</g>
<!-- Mary&#45;&gt;went -->
<g id="edge14" class="edge"><title>Mary&#45;&gt;went</title>
<path fill="none" stroke="black" d="M680.733,-1373.28C695.76,-1364.04 714.964,-1349.76 726,-1332 737.57,-1313.38 742.18,-1288.79 743.975,-1270.18"/>
<polygon fill="black" stroke="black" points="747.481,-1270.24 744.738,-1260.01 740.5,-1269.72 747.481,-1270.24"/>
</g>
<!-- did -->
<g id="node49" class="node"><title>did</title>
<ellipse fill="none" stroke="black" cx="690" cy="-594" rx="27" ry="18"/>
<text text-anchor="middle" x="690" y="-590.3" font-family="Times,serif" font-size="14.00">did</text>
</g>
<!-- Mary&#45;&gt;did -->
<g id="edge59" class="edge"><title>Mary&#45;&gt;did</title>
<path fill="none" stroke="black" d="M682.614,-1374.81C723.23,-1355.5 802,-1309.48 802,-1243 802,-1243 802,-1243 802,-737 802,-682.525 750.558,-636.667 717.401,-612.766"/>
<polygon fill="black" stroke="black" points="719.201,-609.754 708.999,-606.894 715.191,-615.492 719.201,-609.754"/>
</g>
<!-- so -->
<g id="node54" class="node"><title>so</title>
<ellipse fill="none" stroke="black" cx="636" cy="-1098" rx="27" ry="18"/>
<text text-anchor="middle" x="636" y="-1094.3" font-family="Times,serif" font-size="14.00">so</text>
</g>
<!-- Mary&#45;&gt;so -->
<g id="edge66" class="edge"><title>Mary&#45;&gt;so</title>
<path fill="none" stroke="black" d="M655.609,-1367.88C653.681,-1357.53 651.382,-1344.05 650,-1332 641.493,-1257.77 637.978,-1169.6 636.677,-1126.08"/>
<polygon fill="black" stroke="black" points="640.173,-1125.91 636.392,-1116.01 633.176,-1126.11 640.173,-1125.91"/>
</g>
<!-- loves -->
<g id="node57" class="node"><title>loves</title>
<ellipse fill="none" stroke="black" cx="688" cy="-1314" rx="29.4969" ry="18"/>
<text text-anchor="middle" x="688" y="-1310.3" font-family="Times,serif" font-size="14.00">loves</text>
</g>
<!-- Mary&#45;&gt;loves -->
<g id="edge72" class="edge"><title>Mary&#45;&gt;loves</title>
<path fill="none" stroke="black" d="M665.873,-1368.41C669.218,-1360.34 673.321,-1350.43 677.082,-1341.35"/>
<polygon fill="black" stroke="black" points="680.381,-1342.53 680.975,-1331.96 673.914,-1339.86 680.381,-1342.53"/>
</g>
<!-- a -->
<g id="node3" class="node"><title>a</title>
<ellipse fill="none" stroke="black" cx="287" cy="-1242" rx="27" ry="18"/>
<text text-anchor="middle" x="287" y="-1238.3" font-family="Times,serif" font-size="14.00">a</text>
</g>
<!-- had&#45;&gt;a -->
<g id="edge2" class="edge"><title>had&#45;&gt;a</title>
<path fill="none" stroke="black" d="M478.17,-1305.24C439.829,-1292.76 364.327,-1268.18 320.555,-1253.93"/>
<polygon fill="black" stroke="black" points="321.529,-1250.56 310.937,-1250.79 319.362,-1257.22 321.529,-1250.56"/>
</g>
<!-- little -->
<g id="node4" class="node"><title>little</title>
<ellipse fill="none" stroke="black" cx="343" cy="-1170" rx="27.8951" ry="18"/>
<text text-anchor="middle" x="343" y="-1166.3" font-family="Times,serif" font-size="14.00">little</text>
</g>
<!-- a&#45;&gt;little -->
<g id="edge3" class="edge"><title>a&#45;&gt;little</title>
<path fill="none" stroke="black" d="M299.151,-1225.81C306.461,-1216.67 315.921,-1204.85 324.181,-1194.52"/>
<polygon fill="black" stroke="black" points="326.971,-1196.64 330.485,-1186.64 321.505,-1192.27 326.971,-1196.64"/>
</g>
<!-- lamb -->
<g id="node5" class="node"><title>lamb</title>
<ellipse fill="none" stroke="black" cx="343" cy="-1098" rx="28.6953" ry="18"/>
<text text-anchor="middle" x="343" y="-1094.3" font-family="Times,serif" font-size="14.00">lamb</text>
</g>
<!-- a&#45;&gt;lamb -->
<g id="edge41" class="edge"><title>a&#45;&gt;lamb</title>
<path fill="none" stroke="black" d="M288.597,-1223.99C290.781,-1205.61 295.674,-1175.76 306,-1152 310.541,-1141.55 317.301,-1131.05 323.806,-1122.18"/>
<polygon fill="black" stroke="black" points="326.586,-1124.31 329.883,-1114.24 321.027,-1120.06 326.586,-1124.31"/>
</g>
<!-- little&#45;&gt;lamb -->
<g id="edge4" class="edge"><title>little&#45;&gt;lamb</title>
<path fill="none" stroke="black" d="M343,-1151.7C343,-1143.98 343,-1134.71 343,-1126.11"/>
<polygon fill="black" stroke="black" points="346.5,-1126.1 343,-1116.1 339.5,-1126.1 346.5,-1126.1"/>
</g>
<!-- its -->
<g id="node6" class="node"><title>its</title>
<ellipse fill="none" stroke="black" cx="233" cy="-1026" rx="27" ry="18"/>
<text text-anchor="middle" x="233" y="-1022.3" font-family="Times,serif" font-size="14.00">its</text>
</g>
<!-- lamb&#45;&gt;its -->
<g id="edge5" class="edge"><title>lamb&#45;&gt;its</title>
<path fill="none" stroke="black" d="M323.587,-1084.65C306.044,-1073.48 280.035,-1056.93 260.381,-1044.42"/>
<polygon fill="black" stroke="black" points="262.167,-1041.41 251.851,-1039 258.409,-1047.32 262.167,-1041.41"/>
</g>
<!-- was -->
<g id="node8" class="node"><title>was</title>
<ellipse fill="none" stroke="black" cx="139" cy="-882" rx="27" ry="18"/>
<text text-anchor="middle" x="139" y="-878.3" font-family="Times,serif" font-size="14.00">was</text>
</g>
<!-- lamb&#45;&gt;was -->
<g id="edge17" class="edge"><title>lamb&#45;&gt;was</title>
<path fill="none" stroke="black" d="M334.655,-1080.65C318.113,-1049.46 278.532,-980.592 230,-936 212.459,-919.884 189.202,-906.444 170.59,-897.13"/>
<polygon fill="black" stroke="black" points="171.861,-893.857 161.336,-892.644 168.808,-900.156 171.861,-893.857"/>
</g>
<!-- at -->
<g id="node35" class="node"><title>at</title>
<ellipse fill="none" stroke="black" cx="343" cy="-954" rx="27" ry="18"/>
<text text-anchor="middle" x="343" y="-950.3" font-family="Times,serif" font-size="14.00">at</text>
</g>
<!-- lamb&#45;&gt;at -->
<g id="edge42" class="edge"><title>lamb&#45;&gt;at</title>
<path fill="none" stroke="black" d="M343,-1079.87C343,-1055.67 343,-1011.21 343,-982.393"/>
<polygon fill="black" stroke="black" points="346.5,-982.189 343,-972.189 339.5,-982.189 346.5,-982.189"/>
</g>
<!-- love -->
<g id="node53" class="node"><title>love</title>
<ellipse fill="none" stroke="black" cx="161" cy="-1026" rx="27" ry="18"/>
<text text-anchor="middle" x="161" y="-1022.3" font-family="Times,serif" font-size="14.00">love</text>
</g>
<!-- lamb&#45;&gt;love -->
<g id="edge64" class="edge"><title>lamb&#45;&gt;love</title>
<path fill="none" stroke="black" d="M318.19,-1088.78C288.924,-1078.91 238.944,-1061.47 197,-1044 195.182,-1043.24 193.322,-1042.44 191.453,-1041.62"/>
<polygon fill="black" stroke="black" points="192.725,-1038.35 182.173,-1037.4 189.826,-1044.73 192.725,-1038.35"/>
</g>
<!-- you -->
<g id="node58" class="node"><title>you</title>
<ellipse fill="none" stroke="black" cx="491" cy="-954" rx="27" ry="18"/>
<text text-anchor="middle" x="491" y="-950.3" font-family="Times,serif" font-size="14.00">you</text>
</g>
<!-- lamb&#45;&gt;you -->
<g id="edge75" class="edge"><title>lamb&#45;&gt;you</title>
<path fill="none" stroke="black" d="M368.327,-1089.46C391.566,-1081.43 425.672,-1066.72 448,-1044 465.129,-1026.57 476.507,-1000.99 483.232,-981.724"/>
<polygon fill="black" stroke="black" points="486.621,-982.623 486.413,-972.031 479.97,-980.441 486.621,-982.623"/>
</g>
<!-- fleace -->
<g id="node7" class="node"><title>fleace</title>
<ellipse fill="none" stroke="black" cx="189" cy="-954" rx="31.6951" ry="18"/>
<text text-anchor="middle" x="189" y="-950.3" font-family="Times,serif" font-size="14.00">fleace</text>
</g>
<!-- its&#45;&gt;fleace -->
<g id="edge6" class="edge"><title>its&#45;&gt;fleace</title>
<path fill="none" stroke="black" d="M223.016,-1009.12C217.58,-1000.47 210.733,-989.575 204.609,-979.833"/>
<polygon fill="black" stroke="black" points="207.535,-977.911 199.25,-971.307 201.609,-981.636 207.535,-977.911"/>
</g>
<!-- fleace&#45;&gt;was -->
<g id="edge7" class="edge"><title>fleace&#45;&gt;was</title>
<path fill="none" stroke="black" d="M177.654,-937.116C171.325,-928.255 163.312,-917.037 156.225,-907.115"/>
<polygon fill="black" stroke="black" points="158.961,-904.924 150.301,-898.821 153.265,-908.993 158.961,-904.924"/>
</g>
<!-- white -->
<g id="node9" class="node"><title>white</title>
<ellipse fill="none" stroke="black" cx="97" cy="-810" rx="30.5947" ry="18"/>
<text text-anchor="middle" x="97" y="-806.3" font-family="Times,serif" font-size="14.00">white</text>
</g>
<!-- was&#45;&gt;white -->
<g id="edge8" class="edge"><title>was&#45;&gt;white</title>
<path fill="none" stroke="black" d="M129.47,-865.116C124.334,-856.557 117.878,-845.797 112.079,-836.132"/>
<polygon fill="black" stroke="black" points="114.93,-834.081 106.784,-827.307 108.928,-837.683 114.93,-834.081"/>
</g>
<!-- sure -->
<g id="node17" class="node"><title>sure</title>
<ellipse fill="none" stroke="black" cx="165" cy="-738" rx="27" ry="18"/>
<text text-anchor="middle" x="165" y="-734.3" font-family="Times,serif" font-size="14.00">sure</text>
</g>
<!-- was&#45;&gt;sure -->
<g id="edge18" class="edge"><title>was&#45;&gt;sure</title>
<path fill="none" stroke="black" d="M142.136,-863.871C146.567,-839.67 154.708,-795.211 159.984,-766.393"/>
<polygon fill="black" stroke="black" points="163.494,-766.656 161.853,-756.189 156.609,-765.395 163.494,-766.656"/>
</g>
<!-- against -->
<g id="node27" class="node"><title>against</title>
<ellipse fill="none" stroke="black" cx="258" cy="-810" rx="36.2938" ry="18"/>
<text text-anchor="middle" x="258" y="-806.3" font-family="Times,serif" font-size="14.00">against</text>
</g>
<!-- was&#45;&gt;against -->
<g id="edge29" class="edge"><title>was&#45;&gt;against</title>
<path fill="none" stroke="black" d="M158.65,-869.441C177.134,-858.568 205.114,-842.109 226.676,-829.426"/>
<polygon fill="black" stroke="black" points="228.632,-832.336 235.477,-824.249 225.083,-826.302 228.632,-832.336"/>
</g>
<!-- as -->
<g id="node10" class="node"><title>as</title>
<ellipse fill="none" stroke="black" cx="93" cy="-738" rx="27" ry="18"/>
<text text-anchor="middle" x="93" y="-734.3" font-family="Times,serif" font-size="14.00">as</text>
</g>
<!-- white&#45;&gt;as -->
<g id="edge9" class="edge"><title>white&#45;&gt;as</title>
<path fill="none" stroke="black" d="M96.0112,-791.697C95.5704,-783.983 95.0407,-774.712 94.5493,-766.112"/>
<polygon fill="black" stroke="black" points="98.0423,-765.888 93.9774,-756.104 91.0537,-766.288 98.0423,-765.888"/>
</g>
<!-- snow -->
<g id="node11" class="node"><title>snow</title>
<ellipse fill="none" stroke="black" cx="95" cy="-666" rx="29.4969" ry="18"/>
<text text-anchor="middle" x="95" y="-662.3" font-family="Times,serif" font-size="14.00">snow</text>
</g>
<!-- as&#45;&gt;snow -->
<g id="edge10" class="edge"><title>as&#45;&gt;snow</title>
<path fill="none" stroke="black" d="M93.4944,-719.697C93.7148,-711.983 93.9796,-702.712 94.2254,-694.112"/>
<polygon fill="black" stroke="black" points="97.7242,-694.2 94.5113,-684.104 90.727,-694 97.7242,-694.2"/>
</g>
<!-- And -->
<g id="node12" class="node"><title>And</title>
<ellipse fill="none" stroke="black" cx="659" cy="-1602" rx="27.0966" ry="18"/>
<text text-anchor="middle" x="659" y="-1598.3" font-family="Times,serif" font-size="14.00">And</text>
</g>
<!-- everywhere -->
<g id="node13" class="node"><title>everywhere</title>
<ellipse fill="none" stroke="black" cx="659" cy="-1530" rx="51.9908" ry="18"/>
<text text-anchor="middle" x="659" y="-1526.3" font-family="Times,serif" font-size="14.00">everywhere</text>
</g>
<!-- And&#45;&gt;everywhere -->
<g id="edge11" class="edge"><title>And&#45;&gt;everywhere</title>
<path fill="none" stroke="black" d="M659,-1583.7C659,-1575.98 659,-1566.71 659,-1558.11"/>
<polygon fill="black" stroke="black" points="662.5,-1558.1 659,-1548.1 655.5,-1558.1 662.5,-1558.1"/>
</g>
<!-- that -->
<g id="node14" class="node"><title>that</title>
<ellipse fill="none" stroke="black" cx="659" cy="-1458" rx="27" ry="18"/>
<text text-anchor="middle" x="659" y="-1454.3" font-family="Times,serif" font-size="14.00">that</text>
</g>
<!-- everywhere&#45;&gt;that -->
<g id="edge12" class="edge"><title>everywhere&#45;&gt;that</title>
<path fill="none" stroke="black" d="M659,-1511.7C659,-1503.98 659,-1494.71 659,-1486.11"/>
<polygon fill="black" stroke="black" points="662.5,-1486.1 659,-1476.1 655.5,-1486.1 662.5,-1486.1"/>
</g>
<!-- that&#45;&gt;Mary -->
<g id="edge13" class="edge"><title>that&#45;&gt;Mary</title>
<path fill="none" stroke="black" d="M659,-1439.7C659,-1431.98 659,-1422.71 659,-1414.11"/>
<polygon fill="black" stroke="black" points="662.5,-1414.1 659,-1404.1 655.5,-1414.1 662.5,-1414.1"/>
</g>
<!-- the -->
<g id="node16" class="node"><title>the</title>
<ellipse fill="none" stroke="black" cx="519" cy="-738" rx="27" ry="18"/>
<text text-anchor="middle" x="519" y="-734.3" font-family="Times,serif" font-size="14.00">the</text>
</g>
<!-- went&#45;&gt;the -->
<g id="edge15" class="edge"><title>went&#45;&gt;the</title>
<path fill="none" stroke="black" d="M744.012,-1223.96C742.555,-1197.31 740,-1144.14 740,-1099 740,-1099 740,-1099 740,-881 740,-839.791 743.412,-820.863 714,-792 671.552,-750.345 599.814,-740.617 556.19,-738.798"/>
<polygon fill="black" stroke="black" points="556.105,-735.294 546.005,-738.496 555.897,-742.291 556.105,-735.294"/>
</g>
<!-- the&#45;&gt;lamb -->
<g id="edge16" class="edge"><title>the&#45;&gt;lamb</title>
<path fill="none" stroke="black" d="M501.308,-751.679C481.827,-774.15 455.734,-822.51 435,-864 398.053,-937.933 357.138,-1026.52 343.996,-1070.09"/>
<polygon fill="black" stroke="black" points="340.571,-1069.35 341.33,-1079.92 347.327,-1071.18 340.571,-1069.35"/>
</g>
<!-- the&#45;&gt;lamb -->
<g id="edge63" class="edge"><title>the&#45;&gt;lamb</title>
<path fill="none" stroke="black" d="M510.224,-755.062C497.354,-778.741 472.747,-824.486 453,-864 415.711,-938.617 374.381,-1028.16 354.682,-1071.29"/>
<polygon fill="black" stroke="black" points="351.449,-1069.94 350.485,-1080.49 357.818,-1072.85 351.449,-1069.94"/>
</g>
<!-- the&#45;&gt;lamb -->
<g id="edge74" class="edge"><title>the&#45;&gt;lamb</title>
<path fill="none" stroke="black" d="M521.622,-756.264C514.535,-780.264 490.417,-825.145 471,-864 432.809,-940.422 390.379,-1032.5 363.817,-1074.34"/>
<polygon fill="black" stroke="black" points="360.87,-1072.45 358.234,-1082.71 366.694,-1076.33 360.87,-1072.45"/>
</g>
<!-- rule -->
<g id="node28" class="node"><title>rule</title>
<ellipse fill="none" stroke="black" cx="446" cy="-666" rx="27" ry="18"/>
<text text-anchor="middle" x="446" y="-662.3" font-family="Times,serif" font-size="14.00">rule</text>
</g>
<!-- the&#45;&gt;rule -->
<g id="edge31" class="edge"><title>the&#45;&gt;rule</title>
<path fill="none" stroke="black" d="M504.227,-722.834C493.838,-712.872 479.756,-699.369 468.043,-688.137"/>
<polygon fill="black" stroke="black" points="470.391,-685.539 460.751,-681.144 465.546,-690.592 470.391,-685.539"/>
</g>
<!-- children -->
<g id="node30" class="node"><title>children</title>
<ellipse fill="none" stroke="black" cx="393" cy="-594" rx="40.8928" ry="18"/>
<text text-anchor="middle" x="393" y="-590.3" font-family="Times,serif" font-size="14.00">children</text>
</g>
<!-- the&#45;&gt;children -->
<g id="edge34" class="edge"><title>the&#45;&gt;children</title>
<path fill="none" stroke="black" d="M493.618,-731.633C468.398,-724.926 430.596,-710.898 410,-684 396.587,-666.483 392.768,-641.446 392.057,-622.386"/>
<polygon fill="black" stroke="black" points="395.555,-622.189 391.944,-612.228 388.556,-622.267 395.555,-622.189"/>
</g>
<!-- teacher -->
<g id="node37" class="node"><title>teacher</title>
<ellipse fill="none" stroke="black" cx="607" cy="-666" rx="37.8943" ry="18"/>
<text text-anchor="middle" x="607" y="-662.3" font-family="Times,serif" font-size="14.00">teacher</text>
</g>
<!-- the&#45;&gt;teacher -->
<g id="edge45" class="edge"><title>the&#45;&gt;teacher</title>
<path fill="none" stroke="black" d="M532.027,-722.155C543.756,-711.793 561.112,-697.856 576.248,-686.585"/>
<polygon fill="black" stroke="black" points="578.375,-689.366 584.379,-680.637 574.242,-683.716 578.375,-689.366"/>
</g>
<!-- the&#45;&gt;teacher -->
<g id="edge78" class="edge"><title>the&#45;&gt;teacher</title>
<path fill="none" stroke="black" d="M538.698,-725.441C552.525,-715.703 570.796,-701.483 585.055,-689.509"/>
<polygon fill="black" stroke="black" points="587.606,-691.933 592.923,-682.769 583.052,-686.617 587.606,-691.933"/>
</g>
<!-- eager -->
<g id="node55" class="node"><title>eager</title>
<ellipse fill="none" stroke="black" cx="521" cy="-666" rx="29.795" ry="18"/>
<text text-anchor="middle" x="521" y="-662.3" font-family="Times,serif" font-size="14.00">eager</text>
</g>
<!-- the&#45;&gt;eager -->
<g id="edge68" class="edge"><title>the&#45;&gt;eager</title>
<path fill="none" stroke="black" d="M519.494,-719.697C519.715,-711.983 519.98,-702.712 520.225,-694.112"/>
<polygon fill="black" stroke="black" points="523.724,-694.2 520.511,-684.104 516.727,-694 523.724,-694.2"/>
</g>
<!-- to -->
<g id="node18" class="node"><title>to</title>
<ellipse fill="none" stroke="black" cx="244" cy="-306" rx="27" ry="18"/>
<text text-anchor="middle" x="244" y="-302.3" font-family="Times,serif" font-size="14.00">to</text>
</g>
<!-- sure&#45;&gt;to -->
<g id="edge19" class="edge"><title>sure&#45;&gt;to</title>
<path fill="none" stroke="black" d="M168.359,-720.029C173.313,-693.475 182,-640.437 182,-595 182,-595 182,-595 182,-521 182,-450.396 213.52,-371.68 231.612,-332.314"/>
<polygon fill="black" stroke="black" points="234.817,-333.723 235.895,-323.183 228.479,-330.75 234.817,-333.723"/>
</g>
<!-- go -->
<g id="node19" class="node"><title>go</title>
<ellipse fill="none" stroke="black" cx="254" cy="-234" rx="27" ry="18"/>
<text text-anchor="middle" x="254" y="-230.3" font-family="Times,serif" font-size="14.00">go</text>
</g>
<!-- to&#45;&gt;go -->
<g id="edge20" class="edge"><title>to&#45;&gt;go</title>
<path fill="none" stroke="black" d="M246.421,-288.055C247.522,-280.346 248.853,-271.027 250.091,-262.364"/>
<polygon fill="black" stroke="black" points="253.583,-262.67 251.532,-252.275 246.653,-261.68 253.583,-262.67"/>
</g>
<!-- school -->
<g id="node23" class="node"><title>school</title>
<ellipse fill="none" stroke="black" cx="175" cy="-234" rx="34.394" ry="18"/>
<text text-anchor="middle" x="175" y="-230.3" font-family="Times,serif" font-size="14.00">school</text>
</g>
<!-- to&#45;&gt;school -->
<g id="edge24" class="edge"><title>to&#45;&gt;school</title>
<path fill="none" stroke="black" d="M229.703,-290.496C220.338,-280.995 207.906,-268.383 197.261,-257.583"/>
<polygon fill="black" stroke="black" points="199.748,-255.121 190.236,-250.457 194.763,-260.035 199.748,-255.121"/>
</g>
<!-- see -->
<g id="node34" class="node"><title>see</title>
<ellipse fill="none" stroke="black" cx="95" cy="-234" rx="27" ry="18"/>
<text text-anchor="middle" x="95" y="-230.3" font-family="Times,serif" font-size="14.00">see</text>
</g>
<!-- to&#45;&gt;see -->
<g id="edge39" class="edge"><title>to&#45;&gt;see</title>
<path fill="none" stroke="black" d="M222.652,-294.971C197.348,-283.083 154.976,-263.176 126.045,-249.585"/>
<polygon fill="black" stroke="black" points="127.332,-246.323 116.793,-245.238 124.356,-252.658 127.332,-246.323"/>
</g>
<!-- It -->
<g id="node20" class="node"><title>It</title>
<ellipse fill="none" stroke="black" cx="332" cy="-882" rx="27" ry="18"/>
<text text-anchor="middle" x="332" y="-878.3" font-family="Times,serif" font-size="14.00">It</text>
</g>
<!-- followed -->
<g id="node21" class="node"><title>followed</title>
<ellipse fill="none" stroke="black" cx="306" cy="-738" rx="41.6928" ry="18"/>
<text text-anchor="middle" x="306" y="-734.3" font-family="Times,serif" font-size="14.00">followed</text>
</g>
<!-- It&#45;&gt;followed -->
<g id="edge21" class="edge"><title>It&#45;&gt;followed</title>
<path fill="none" stroke="black" d="M328.864,-863.871C324.433,-839.67 316.292,-795.211 311.016,-766.393"/>
<polygon fill="black" stroke="black" points="314.391,-765.395 309.147,-756.189 307.506,-766.656 314.391,-765.395"/>
</g>
<!-- made -->
<g id="node29" class="node"><title>made</title>
<ellipse fill="none" stroke="black" cx="381" cy="-810" rx="30.5947" ry="18"/>
<text text-anchor="middle" x="381" y="-806.3" font-family="Times,serif" font-size="14.00">made</text>
</g>
<!-- It&#45;&gt;made -->
<g id="edge32" class="edge"><title>It&#45;&gt;made</title>
<path fill="none" stroke="black" d="M342.875,-865.465C349.068,-856.617 356.964,-845.337 363.963,-835.339"/>
<polygon fill="black" stroke="black" points="366.949,-837.177 369.816,-826.977 361.214,-833.162 366.949,-837.177"/>
</g>
<!-- her -->
<g id="node22" class="node"><title>her</title>
<ellipse fill="none" stroke="black" cx="290" cy="-594" rx="27" ry="18"/>
<text text-anchor="middle" x="290" y="-590.3" font-family="Times,serif" font-size="14.00">her</text>
</g>
<!-- followed&#45;&gt;her -->
<g id="edge22" class="edge"><title>followed&#45;&gt;her</title>
<path fill="none" stroke="black" d="M304.07,-719.871C301.343,-695.67 296.334,-651.211 293.087,-622.393"/>
<polygon fill="black" stroke="black" points="296.535,-621.734 291.937,-612.189 289.579,-622.518 296.535,-621.734"/>
</g>
<!-- her&#45;&gt;to -->
<g id="edge23" class="edge"><title>her&#45;&gt;to</title>
<path fill="none" stroke="black" d="M285.348,-575.91C282.649,-565.572 279.333,-552.093 277,-540 262.728,-466.038 251.897,-377.754 246.953,-334.142"/>
<polygon fill="black" stroke="black" points="250.414,-333.602 245.824,-324.053 243.458,-334.38 250.414,-333.602"/>
</g>
<!-- one -->
<g id="node24" class="node"><title>one</title>
<ellipse fill="none" stroke="black" cx="154" cy="-162" rx="27" ry="18"/>
<text text-anchor="middle" x="154" y="-158.3" font-family="Times,serif" font-size="14.00">one</text>
</g>
<!-- school&#45;&gt;one -->
<g id="edge25" class="edge"><title>school&#45;&gt;one</title>
<path fill="none" stroke="black" d="M169.916,-216.055C167.518,-208.059 164.599,-198.331 161.92,-189.4"/>
<polygon fill="black" stroke="black" points="165.263,-188.362 159.037,-179.789 158.558,-190.373 165.263,-188.362"/>
</g>
<!-- day -->
<g id="node25" class="node"><title>day</title>
<ellipse fill="none" stroke="black" cx="113" cy="-90" rx="27" ry="18"/>
<text text-anchor="middle" x="113" y="-86.3" font-family="Times,serif" font-size="14.00">day</text>
</g>
<!-- one&#45;&gt;day -->
<g id="edge26" class="edge"><title>one&#45;&gt;day</title>
<path fill="none" stroke="black" d="M144.491,-144.765C139.471,-136.195 133.204,-125.494 127.585,-115.9"/>
<polygon fill="black" stroke="black" points="130.532,-114.007 122.458,-107.147 124.492,-117.545 130.532,-114.007"/>
</g>
<!-- which -->
<g id="node26" class="node"><title>which</title>
<ellipse fill="none" stroke="black" cx="75" cy="-18" rx="32.4942" ry="18"/>
<text text-anchor="middle" x="75" y="-14.3" font-family="Times,serif" font-size="14.00">which</text>
</g>
<!-- day&#45;&gt;which -->
<g id="edge27" class="edge"><title>day&#45;&gt;which</title>
<path fill="none" stroke="black" d="M104.187,-72.7646C99.6481,-64.4043 94.0087,-54.0159 88.9004,-44.6059"/>
<polygon fill="black" stroke="black" points="91.8765,-42.7521 84.0296,-35.6334 85.7245,-46.0918 91.8765,-42.7521"/>
</g>
<!-- which&#45;&gt;was -->
<g id="edge28" class="edge"><title>which&#45;&gt;was</title>
<path fill="none" stroke="black" d="M67.69,-35.6818C56.9071,-61.8493 38,-114.379 38,-161 38,-739 38,-739 38,-739 38,-779.447 34.0399,-794.702 57,-828 69.2595,-845.78 89.6266,-858.989 106.995,-867.774"/>
<polygon fill="black" stroke="black" points="105.733,-871.05 116.265,-872.2 108.749,-864.733 105.733,-871.05"/>
</g>
<!-- against&#45;&gt;the -->
<g id="edge30" class="edge"><title>against&#45;&gt;the</title>
<path fill="none" stroke="black" d="M289.223,-800.626C338.339,-787.453 433.306,-761.983 484.423,-748.274"/>
<polygon fill="black" stroke="black" points="485.582,-751.587 494.334,-745.615 483.768,-744.825 485.582,-751.587"/>
</g>
<!-- made&#45;&gt;the -->
<g id="edge33" class="edge"><title>made&#45;&gt;the</title>
<path fill="none" stroke="black" d="M403.479,-797.597C426.743,-785.797 463.212,-767.298 488.941,-754.248"/>
<polygon fill="black" stroke="black" points="490.554,-757.354 497.889,-749.708 487.388,-751.111 490.554,-757.354"/>
</g>
<!-- laugh -->
<g id="node31" class="node"><title>laugh</title>
<ellipse fill="none" stroke="black" cx="317" cy="-522" rx="30.5947" ry="18"/>
<text text-anchor="middle" x="317" y="-518.3" font-family="Times,serif" font-size="14.00">laugh</text>
</g>
<!-- children&#45;&gt;laugh -->
<g id="edge35" class="edge"><title>children&#45;&gt;laugh</title>
<path fill="none" stroke="black" d="M376.133,-577.465C365.616,-567.778 351.932,-555.174 340.376,-544.531"/>
<polygon fill="black" stroke="black" points="342.509,-541.736 332.782,-537.536 337.766,-546.885 342.509,-541.736"/>
</g>
<!-- cried -->
<g id="node56" class="node"><title>cried</title>
<ellipse fill="none" stroke="black" cx="394" cy="-522" rx="28.6953" ry="18"/>
<text text-anchor="middle" x="394" y="-518.3" font-family="Times,serif" font-size="14.00">cried</text>
</g>
<!-- children&#45;&gt;cried -->
<g id="edge70" class="edge"><title>children&#45;&gt;cried</title>
<path fill="none" stroke="black" d="M393.247,-575.697C393.357,-567.983 393.49,-558.712 393.613,-550.112"/>
<polygon fill="black" stroke="black" points="397.112,-550.153 393.756,-540.104 390.113,-550.053 397.112,-550.153"/>
</g>
<!-- and -->
<g id="node32" class="node"><title>and</title>
<ellipse fill="none" stroke="black" cx="315" cy="-450" rx="27" ry="18"/>
<text text-anchor="middle" x="315" y="-446.3" font-family="Times,serif" font-size="14.00">and</text>
</g>
<!-- laugh&#45;&gt;and -->
<g id="edge36" class="edge"><title>laugh&#45;&gt;and</title>
<path fill="none" stroke="black" d="M316.506,-503.697C316.285,-495.983 316.02,-486.712 315.775,-478.112"/>
<polygon fill="black" stroke="black" points="319.273,-478 315.489,-468.104 312.276,-478.2 319.273,-478"/>
</g>
<!-- play -->
<g id="node33" class="node"><title>play</title>
<ellipse fill="none" stroke="black" cx="314" cy="-378" rx="27" ry="18"/>
<text text-anchor="middle" x="314" y="-374.3" font-family="Times,serif" font-size="14.00">play</text>
</g>
<!-- and&#45;&gt;play -->
<g id="edge37" class="edge"><title>and&#45;&gt;play</title>
<path fill="none" stroke="black" d="M314.753,-431.697C314.643,-423.983 314.51,-414.712 314.387,-406.112"/>
<polygon fill="black" stroke="black" points="317.887,-406.053 314.244,-396.104 310.888,-406.153 317.887,-406.053"/>
</g>
<!-- play&#45;&gt;to -->
<g id="edge38" class="edge"><title>play&#45;&gt;to</title>
<path fill="none" stroke="black" d="M299.496,-362.496C289.735,-352.735 276.69,-339.69 265.7,-328.7"/>
<polygon fill="black" stroke="black" points="268.031,-326.082 258.485,-321.485 263.082,-331.031 268.031,-326.082"/>
</g>
<!-- see&#45;&gt;a -->
<g id="edge40" class="edge"><title>see&#45;&gt;a</title>
<path fill="none" stroke="black" d="M78.0159,-248.298C50.6905,-271.331 0,-321.534 0,-377 0,-739 0,-739 0,-739 0,-951.232 195.721,-1155.28 263.908,-1219.93"/>
<polygon fill="black" stroke="black" points="261.881,-1222.83 271.57,-1227.11 266.669,-1217.72 261.881,-1222.83"/>
</g>
<!-- at&#45;&gt;school -->
<g id="edge43" class="edge"><title>at&#45;&gt;school</title>
<path fill="none" stroke="black" d="M323.29,-941.477C292.852,-922.392 235.567,-881.007 213,-828 206.732,-813.279 212.553,-807.994 213,-792 214.556,-736.379 220,-722.643 220,-667 220,-667 220,-667 220,-521 220,-424.567 194.726,-312.044 182.06,-261.708"/>
<polygon fill="black" stroke="black" points="185.431,-260.76 179.562,-251.939 178.649,-262.494 185.431,-260.76"/>
</g>
<!-- So -->
<g id="node36" class="node"><title>So</title>
<ellipse fill="none" stroke="black" cx="607" cy="-810" rx="27" ry="18"/>
<text text-anchor="middle" x="607" y="-806.3" font-family="Times,serif" font-size="14.00">So</text>
</g>
<!-- So&#45;&gt;the -->
<g id="edge44" class="edge"><title>So&#45;&gt;the</title>
<path fill="none" stroke="black" d="M590.033,-795.503C576.923,-785.075 558.586,-770.489 543.827,-758.749"/>
<polygon fill="black" stroke="black" points="545.622,-755.704 535.617,-752.218 541.264,-761.182 545.622,-755.704"/>
</g>
<!-- turned -->
<g id="node38" class="node"><title>turned</title>
<ellipse fill="none" stroke="black" cx="607" cy="-594" rx="34.394" ry="18"/>
<text text-anchor="middle" x="607" y="-590.3" font-family="Times,serif" font-size="14.00">turned</text>
</g>
<!-- teacher&#45;&gt;turned -->
<g id="edge46" class="edge"><title>teacher&#45;&gt;turned</title>
<path fill="none" stroke="black" d="M607,-647.697C607,-639.983 607,-630.712 607,-622.112"/>
<polygon fill="black" stroke="black" points="610.5,-622.104 607,-612.104 603.5,-622.104 610.5,-622.104"/>
</g>
<!-- teacher&#45;&gt;did -->
<g id="edge79" class="edge"><title>teacher&#45;&gt;did</title>
<path fill="none" stroke="black" d="M625.01,-649.811C637.092,-639.622 653.134,-626.092 666.257,-615.024"/>
<polygon fill="black" stroke="black" points="668.601,-617.626 673.989,-608.503 664.088,-612.275 668.601,-617.626"/>
</g>
<!-- it -->
<g id="node39" class="node"><title>it</title>
<ellipse fill="none" stroke="black" cx="607" cy="-522" rx="27" ry="18"/>
<text text-anchor="middle" x="607" y="-518.3" font-family="Times,serif" font-size="14.00">it</text>
</g>
<!-- turned&#45;&gt;it -->
<g id="edge47" class="edge"><title>turned&#45;&gt;it</title>
<path fill="none" stroke="black" d="M607,-575.697C607,-567.983 607,-558.712 607,-550.112"/>
<polygon fill="black" stroke="black" points="610.5,-550.104 607,-540.104 603.5,-550.104 610.5,-550.104"/>
</g>
<!-- out -->
<g id="node40" class="node"><title>out</title>
<ellipse fill="none" stroke="black" cx="691" cy="-450" rx="27" ry="18"/>
<text text-anchor="middle" x="691" y="-446.3" font-family="Times,serif" font-size="14.00">out</text>
</g>
<!-- it&#45;&gt;out -->
<g id="edge48" class="edge"><title>it&#45;&gt;out</title>
<path fill="none" stroke="black" d="M623.196,-507.503C635.63,-497.142 652.991,-482.674 667.032,-470.973"/>
<polygon fill="black" stroke="black" points="669.412,-473.546 674.854,-464.455 664.931,-468.168 669.412,-473.546"/>
</g>
<!-- lingered -->
<g id="node43" class="node"><title>lingered</title>
<ellipse fill="none" stroke="black" cx="606" cy="-450" rx="40.0939" ry="18"/>
<text text-anchor="middle" x="606" y="-446.3" font-family="Times,serif" font-size="14.00">lingered</text>
</g>
<!-- it&#45;&gt;lingered -->
<g id="edge52" class="edge"><title>it&#45;&gt;lingered</title>
<path fill="none" stroke="black" d="M606.753,-503.697C606.643,-495.983 606.51,-486.712 606.387,-478.112"/>
<polygon fill="black" stroke="black" points="609.887,-478.053 606.244,-468.104 602.888,-478.153 609.887,-478.053"/>
</g>
<!-- waited -->
<g id="node45" class="node"><title>waited</title>
<ellipse fill="none" stroke="black" cx="770" cy="-450" rx="34.394" ry="18"/>
<text text-anchor="middle" x="770" y="-446.3" font-family="Times,serif" font-size="14.00">waited</text>
</g>
<!-- it&#45;&gt;waited -->
<g id="edge54" class="edge"><title>it&#45;&gt;waited</title>
<path fill="none" stroke="black" d="M629.323,-511.414C656.504,-499.74 702.74,-479.885 734.749,-466.139"/>
<polygon fill="black" stroke="black" points="736.382,-469.247 744.189,-462.084 733.619,-462.815 736.382,-469.247"/>
</g>
<!-- but -->
<g id="node41" class="node"><title>but</title>
<ellipse fill="none" stroke="black" cx="681" cy="-378" rx="27" ry="18"/>
<text text-anchor="middle" x="681" y="-374.3" font-family="Times,serif" font-size="14.00">but</text>
</g>
<!-- out&#45;&gt;but -->
<g id="edge49" class="edge"><title>out&#45;&gt;but</title>
<path fill="none" stroke="black" d="M688.579,-432.055C687.478,-424.346 686.147,-415.027 684.909,-406.364"/>
<polygon fill="black" stroke="black" points="688.347,-405.68 683.468,-396.275 681.417,-406.67 688.347,-405.68"/>
</g>
<!-- still -->
<g id="node42" class="node"><title>still</title>
<ellipse fill="none" stroke="black" cx="609" cy="-306" rx="27" ry="18"/>
<text text-anchor="middle" x="609" y="-302.3" font-family="Times,serif" font-size="14.00">still</text>
</g>
<!-- but&#45;&gt;still -->
<g id="edge50" class="edge"><title>but&#45;&gt;still</title>
<path fill="none" stroke="black" d="M666.43,-362.834C656.25,-352.938 642.476,-339.546 630.969,-328.359"/>
<polygon fill="black" stroke="black" points="633.405,-325.846 623.796,-321.385 628.526,-330.865 633.405,-325.846"/>
</g>
<!-- still&#45;&gt;it -->
<g id="edge51" class="edge"><title>still&#45;&gt;it</title>
<path fill="none" stroke="black" d="M595.375,-321.612C586.766,-331.663 576.143,-345.729 570,-360 569.772,-360.53 546.96,-442.727 557,-468 562.122,-480.894 572.033,-492.468 581.689,-501.486"/>
<polygon fill="black" stroke="black" points="579.457,-504.184 589.283,-508.147 584.073,-498.922 579.457,-504.184"/>
</g>
<!-- near -->
<g id="node44" class="node"><title>near</title>
<ellipse fill="none" stroke="black" cx="606" cy="-378" rx="27" ry="18"/>
<text text-anchor="middle" x="606" y="-374.3" font-family="Times,serif" font-size="14.00">near</text>
</g>
<!-- lingered&#45;&gt;near -->
<g id="edge53" class="edge"><title>lingered&#45;&gt;near</title>
<path fill="none" stroke="black" d="M606,-431.697C606,-423.983 606,-414.712 606,-406.112"/>
<polygon fill="black" stroke="black" points="609.5,-406.104 606,-396.104 602.5,-406.104 609.5,-406.104"/>
</g>
<!-- patiently -->
<g id="node46" class="node"><title>patiently</title>
<ellipse fill="none" stroke="black" cx="770" cy="-378" rx="42.4939" ry="18"/>
<text text-anchor="middle" x="770" y="-374.3" font-family="Times,serif" font-size="14.00">patiently</text>
</g>
<!-- waited&#45;&gt;patiently -->
<g id="edge55" class="edge"><title>waited&#45;&gt;patiently</title>
<path fill="none" stroke="black" d="M770,-431.697C770,-423.983 770,-414.712 770,-406.112"/>
<polygon fill="black" stroke="black" points="773.5,-406.104 770,-396.104 766.5,-406.104 773.5,-406.104"/>
</g>
<!-- about -->
<g id="node47" class="node"><title>about</title>
<ellipse fill="none" stroke="black" cx="775" cy="-306" rx="30.5947" ry="18"/>
<text text-anchor="middle" x="775" y="-302.3" font-family="Times,serif" font-size="14.00">about</text>
</g>
<!-- patiently&#45;&gt;about -->
<g id="edge56" class="edge"><title>patiently&#45;&gt;about</title>
<path fill="none" stroke="black" d="M771.236,-359.697C771.787,-351.983 772.449,-342.712 773.063,-334.112"/>
<polygon fill="black" stroke="black" points="776.557,-334.328 773.778,-324.104 769.575,-333.83 776.557,-334.328"/>
</g>
<!-- till -->
<g id="node48" class="node"><title>till</title>
<ellipse fill="none" stroke="black" cx="810" cy="-234" rx="27" ry="18"/>
<text text-anchor="middle" x="810" y="-230.3" font-family="Times,serif" font-size="14.00">till</text>
</g>
<!-- about&#45;&gt;till -->
<g id="edge57" class="edge"><title>about&#45;&gt;till</title>
<path fill="none" stroke="black" d="M783.295,-288.411C787.435,-280.129 792.538,-269.925 797.169,-260.662"/>
<polygon fill="black" stroke="black" points="800.423,-261.979 801.765,-251.47 794.162,-258.849 800.423,-261.979"/>
</g>
<!-- till&#45;&gt;Mary -->
<g id="edge58" class="edge"><title>till&#45;&gt;Mary</title>
<path fill="none" stroke="black" d="M815.927,-251.806C824.67,-278.14 840,-330.89 840,-377 840,-1243 840,-1243 840,-1243 840,-1315.79 748.261,-1356.91 695.407,-1374.56"/>
<polygon fill="black" stroke="black" points="694.154,-1371.29 685.707,-1377.68 696.299,-1377.95 694.154,-1371.29"/>
</g>
<!-- appear -->
<g id="node50" class="node"><title>appear</title>
<ellipse fill="none" stroke="black" cx="767" cy="-522" rx="34.394" ry="18"/>
<text text-anchor="middle" x="767" y="-518.3" font-family="Times,serif" font-size="14.00">appear</text>
</g>
<!-- did&#45;&gt;appear -->
<g id="edge60" class="edge"><title>did&#45;&gt;appear</title>
<path fill="none" stroke="black" d="M705.582,-578.834C716.324,-569.069 730.81,-555.9 743.015,-544.805"/>
<polygon fill="black" stroke="black" points="745.599,-547.186 750.644,-537.869 740.89,-542.006 745.599,-547.186"/>
</g>
<!-- reply -->
<g id="node60" class="node"><title>reply</title>
<ellipse fill="none" stroke="black" cx="686" cy="-522" rx="28.6953" ry="18"/>
<text text-anchor="middle" x="686" y="-518.3" font-family="Times,serif" font-size="14.00">reply</text>
</g>
<!-- did&#45;&gt;reply -->
<g id="edge80" class="edge"><title>did&#45;&gt;reply</title>
<path fill="none" stroke="black" d="M689.011,-575.697C688.57,-567.983 688.041,-558.712 687.549,-550.112"/>
<polygon fill="black" stroke="black" points="691.042,-549.888 686.977,-540.104 684.054,-550.288 691.042,-549.888"/>
</g>
<!-- Why -->
<g id="node51" class="node"><title>Why</title>
<ellipse fill="none" stroke="black" cx="446" cy="-1458" rx="28.6953" ry="18"/>
<text text-anchor="middle" x="446" y="-1454.3" font-family="Times,serif" font-size="14.00">Why</text>
</g>
<!-- Why&#45;&gt;Mary -->
<g id="edge71" class="edge"><title>Why&#45;&gt;Mary</title>
<path fill="none" stroke="black" d="M470.851,-1448.83C508.622,-1436.42 580.637,-1412.75 623.787,-1398.57"/>
<polygon fill="black" stroke="black" points="624.907,-1401.89 633.315,-1395.44 622.722,-1395.24 624.907,-1401.89"/>
</g>
<!-- does -->
<g id="node52" class="node"><title>does</title>
<ellipse fill="none" stroke="black" cx="484" cy="-1170" rx="27" ry="18"/>
<text text-anchor="middle" x="484" y="-1166.3" font-family="Times,serif" font-size="14.00">does</text>
</g>
<!-- Why&#45;&gt;does -->
<g id="edge61" class="edge"><title>Why&#45;&gt;does</title>
<path fill="none" stroke="black" d="M448.05,-1439.59C451.555,-1410.05 459,-1348.2 466,-1296 470.539,-1262.15 476.217,-1223.22 479.969,-1197.92"/>
<polygon fill="black" stroke="black" points="483.44,-1198.38 481.45,-1187.97 476.516,-1197.34 483.44,-1198.38"/>
</g>
<!-- does&#45;&gt;the -->
<g id="edge62" class="edge"><title>does&#45;&gt;the</title>
<path fill="none" stroke="black" d="M496.79,-1153.96C516.488,-1129.21 552,-1077.57 552,-1027 552,-1027 552,-1027 552,-881 552,-839.749 538.624,-793.466 528.904,-765.279"/>
<polygon fill="black" stroke="black" points="532.166,-764.007 525.52,-755.756 525.57,-766.351 532.166,-764.007"/>
</g>
<!-- love&#45;&gt;Mary -->
<g id="edge65" class="edge"><title>love&#45;&gt;Mary</title>
<path fill="none" stroke="black" d="M162.677,-1044.06C167.772,-1086.67 186.885,-1198.74 251,-1260 355.699,-1360.04 538.388,-1380.19 618.921,-1384.12"/>
<polygon fill="black" stroke="black" points="618.994,-1387.63 629.135,-1384.56 619.294,-1380.63 618.994,-1387.63"/>
</g>
<!-- so&#45;&gt;the -->
<g id="edge67" class="edge"><title>so&#45;&gt;the</title>
<path fill="none" stroke="black" d="M641.137,-1080.13C648.714,-1053.72 662,-1000.86 662,-955 662,-955 662,-955 662,-881 662,-840.553 668.702,-823.23 643,-792 621.005,-765.274 583.058,-751.741 554.92,-745.076"/>
<polygon fill="black" stroke="black" points="555.561,-741.633 545.045,-742.919 554.068,-748.472 555.561,-741.633"/>
</g>
<!-- eager&#45;&gt;children -->
<g id="edge69" class="edge"><title>eager&#45;&gt;children</title>
<path fill="none" stroke="black" d="M499.576,-653.284C479.596,-642.357 449.485,-625.89 426.36,-613.244"/>
<polygon fill="black" stroke="black" points="428.013,-610.159 417.56,-608.431 424.655,-616.3 428.013,-610.159"/>
</g>
<!-- loves&#45;&gt;the -->
<g id="edge73" class="edge"><title>loves&#45;&gt;the</title>
<path fill="none" stroke="black" d="M688.982,-1295.87C691.848,-1244.33 700,-1086.22 700,-955 700,-955 700,-955 700,-881 700,-838.813 696.997,-821.663 667,-792 636.881,-762.216 588.884,-749.066 555.757,-743.327"/>
<polygon fill="black" stroke="black" points="555.99,-739.821 545.565,-741.713 554.895,-746.734 555.99,-739.821"/>
</g>
<!-- know -->
<g id="node59" class="node"><title>know</title>
<ellipse fill="none" stroke="black" cx="493" cy="-882" rx="30.5947" ry="18"/>
<text text-anchor="middle" x="493" y="-878.3" font-family="Times,serif" font-size="14.00">know</text>
</g>
<!-- you&#45;&gt;know -->
<g id="edge76" class="edge"><title>you&#45;&gt;know</title>
<path fill="none" stroke="black" d="M491.494,-935.697C491.715,-927.983 491.98,-918.712 492.225,-910.112"/>
<polygon fill="black" stroke="black" points="495.724,-910.2 492.511,-900.104 488.727,-910 495.724,-910.2"/>
</g>
<!-- know&#45;&gt;the -->
<g id="edge77" class="edge"><title>know&#45;&gt;the</title>
<path fill="none" stroke="black" d="M496.136,-863.871C500.567,-839.67 508.708,-795.211 513.984,-766.393"/>
<polygon fill="black" stroke="black" points="517.494,-766.656 515.853,-756.189 510.609,-765.395 517.494,-766.656"/>
</g>
</g>
</svg>
